# xmcd
#
# Track frame offsets:
#	150
#	13744
#	27777
#	39532
#	52297
#	70231
#	78677
#	94207
#	106178
#	117334
#	131722
#	140140
#
# Disc length: 2083 seconds
#
# Revision: 0
# Processed by: cddbd v1.5.1PL0 Copyright (c) Steve Scherf et al.
# Submitted via: dBpowerAMP V4.0
#
DISCID=af08210c
DTITLE=Frazer Bennett - Tribute to Johnny Cash
DYEAR=2004
DGENRE=Country
TTITLE0=man in black
TTITLE1=walk the line
TTITLE2=i still miss someone
TTITLE3=folsum po
TTITLE4=sunday morning coming down
TTITLE5=wreck of ole' 97
TTITLE6=orange blossom special
TTITLE7=don't take your guns to town
TTITLE8=seasons of my heart
TTITLE9=tennessee flat top box
TTITLE10=4 feet high and risin'
TTITLE11=give my love to rose
EXTD=
EXTT0=
EXTT1=
EXTT2=
EXTT3=
EXTT4=
EXTT5=
EXTT6=
EXTT7=
EXTT8=
EXTT9=
EXTT10=
EXTT11=
PLAYORDER=
